<mxfile host="app.diagrams.net" modified="2023-04-24T04:29:43.131Z" agent="Mozilla/5.0 (Windows NT 10.0; Win64; x64) AppleWebKit/537.36 (KHTML, like Gecko) Chrome/112.0.0.0 Safari/537.36" version="21.2.1" etag="ZHYKgdWYFb5dyUX-3lVY" type="github">
  <diagram name="Page-1" id="hmIhWxgauYHtvwoBBr1-">
    <mxGraphModel>
      <root>
        <mxCell id="0" />
        <mxCell id="1" parent="0" />
      </root>
    </mxGraphModel>
  </diagram>
</mxfile>
